<?xml version="1.0" standalone="no"?>
<!DOCTYPE svg PUBLIC "-//W3C//DTD SVG 20010904//EN"
 "http://www.w3.org/TR/2001/REC-SVG-20010904/DTD/svg10.dtd">
<svg version="1.0" xmlns="http://www.w3.org/2000/svg"
 width="512.000000pt" height="512.000000pt" viewBox="0 0 512.000000 512.000000"
 preserveAspectRatio="xMidYMid meet">

<g transform="translate(0.000000,512.000000) scale(0.100000,-0.100000)"
fill="#000000" stroke="none">
<path d="M2400 5110 c-1047 -72 -1932 -750 -2261 -1732 -21 -65 -39 -122 -39
-127 0 -13 123 -39 223 -46 49 -4 103 -11 120 -17 18 -5 43 -11 56 -14 14 -3
29 -11 35 -19 11 -13 113 -41 189 -51 30 -4 37 -2 31 8 -6 10 -5 11 7 1 13
-10 19 -10 35 2 10 8 28 15 38 15 11 0 28 7 38 17 10 9 21 13 25 9 4 -4 1 -11
-7 -16 -13 -8 -12 -10 3 -10 9 0 17 4 17 10 0 5 7 6 17 3 11 -4 14 -3 9 5 -4
7 -1 12 8 12 8 0 16 5 18 10 2 6 13 12 26 13 12 0 21 7 19 13 -1 7 2 12 8 11
5 -1 10 -6 11 -12 3 -24 5 -25 18 -13 8 7 11 18 8 23 -2 6 1 5 8 -2 8 -8 20
-9 36 -3 15 6 24 6 24 0 0 -6 9 -10 20 -10 11 0 20 3 20 8 0 4 18 6 40 6 24
-1 47 4 55 12 12 12 15 12 25 -3 7 -12 13 -14 16 -7 3 7 13 10 23 7 10 -3 34
0 54 5 30 9 37 7 40 -6 4 -14 5 -14 6 1 0 10 7 17 14 14 6 -2 20 0 29 4 10 6
36 5 65 -2 80 -19 113 -21 113 -10 0 6 5 11 10 11 6 0 9 -3 9 -7 -1 -5 -1 -15
0 -23 1 -13 2 -13 11 0 8 12 12 13 19 1 7 -10 13 -11 31 -1 15 8 20 8 16 1 -4
-6 -4 -11 1 -12 48 -5 66 -3 70 7 5 14 73 14 73 0 0 -5 6 -4 13 2 14 12 67 4
67 -9 0 -5 5 -9 10 -9 6 0 10 6 10 14 0 9 9 12 28 9 15 -2 34 -5 42 -7 9 -1
20 -5 26 -8 14 -9 54 2 54 15 0 6 6 2 14 -8 11 -16 16 -17 29 -6 11 9 21 9 34
2 14 -7 28 -5 52 6 27 13 39 14 65 5 18 -7 42 -12 54 -12 12 0 22 -5 22 -11 0
-7 8 -18 18 -26 12 -10 14 -16 5 -19 -24 -10 -13 -24 13 -18 18 5 29 1 40 -12
8 -11 14 -14 13 -9 -3 21 2 29 9 17 7 -10 15 -10 38 -2 33 13 90 5 97 -13 3
-7 6 -4 6 6 1 12 9 17 28 17 25 0 25 -1 9 -13 -15 -11 -16 -15 -5 -19 8 -3 27
-4 42 -3 16 2 25 -1 21 -7 -3 -5 -12 -7 -20 -4 -7 3 -16 1 -18 -3 -7 -10 72
-37 81 -28 3 4 11 3 18 -3 10 -8 44 -11 130 -11 16 0 32 -3 35 -7 3 -4 24 -7
48 -7 24 1 57 -6 73 -14 24 -11 33 -11 42 -2 9 10 8 11 -5 6 -12 -5 -18 -2
-18 8 0 10 7 13 20 10 11 -3 20 -12 20 -19 0 -19 29 -18 36 1 4 8 11 15 16 15
6 0 8 -6 5 -14 -4 -9 2 -14 16 -13 12 0 30 -3 40 -7 12 -6 17 -4 17 9 0 14 3
15 14 6 11 -9 20 -9 34 -2 11 6 40 11 64 10 85 -1 243 -6 248 -8 19 -8 39 -8
34 0 -3 6 0 17 7 25 10 12 14 12 20 2 5 -7 3 -16 -4 -20 -8 -5 -5 -8 8 -8 12
0 25 10 30 23 11 25 42 30 67 9 15 -12 16 -11 11 10 -6 20 -5 21 10 10 9 -8
13 -20 10 -28 -3 -8 0 -14 6 -14 6 0 10 3 9 8 -2 13 14 42 24 42 6 0 7 -7 4
-16 -5 -13 -3 -14 6 -6 9 7 18 7 31 -3 18 -13 18 -14 0 -24 -28 -16 -9 -13 23
4 16 8 39 15 51 15 17 0 21 4 17 18 -5 14 -4 15 5 2 6 -9 22 -14 41 -12 20 2
32 -2 36 -12 3 -9 10 -13 15 -10 5 3 7 10 4 15 -9 13 9 11 23 -3 15 -15 112
-28 112 -14 0 6 4 6 11 -1 7 -7 21 -8 42 -2 17 5 33 5 36 1 4 -5 16 -3 28 3
13 7 20 15 15 20 -4 5 -1 5 7 0 11 -6 9 -12 -10 -27 -18 -15 -19 -18 -6 -14
10 3 23 6 28 6 5 0 9 6 9 14 0 8 4 18 10 21 5 3 7 0 4 -8 -3 -8 3 -20 12 -28
12 -9 15 -10 10 -1 -12 19 13 14 31 -7 9 -11 21 -17 27 -13 17 10 37 11 30 1
-3 -5 0 -9 6 -9 6 0 9 -4 6 -8 -3 -5 8 -8 25 -7 32 2 33 -3 13 -62 -6 -16 -5
-16 10 2 15 17 17 17 12 2 -5 -15 -3 -16 15 -6 17 9 23 8 30 -2 7 -12 10 -12
21 0 7 8 8 11 3 8 -6 -3 -11 4 -12 16 0 12 1 16 4 10 3 -7 13 -13 23 -13 10 0
20 -5 22 -10 2 -6 13 -12 26 -13 12 -1 22 -8 23 -17 0 -10 3 -9 9 5 5 11 9 14
9 8 1 -7 6 -13 12 -13 5 0 8 4 5 9 -4 5 3 7 14 4 11 -3 26 0 34 6 9 8 16 8 20
2 7 -11 46 -11 46 1 0 4 6 5 14 2 9 -3 20 3 28 15 l13 21 13 -23 c13 -22 13
-22 9 5 -3 19 0 25 10 21 7 -3 11 -9 8 -13 -4 -7 17 -7 35 0 3 1 9 2 13 1 5
-1 6 3 3 8 -4 5 3 13 15 16 13 4 18 12 15 21 -3 9 -1 12 4 9 14 -8 13 -1 -10
108 -83 408 -249 751 -537 1115 -11 13 -19 14 -48 5 -32 -10 -52 -1 -22 10 6
2 0 4 -16 3 -19 -1 -26 -5 -22 -16 3 -10 1 -9 -9 3 -13 16 -14 16 -29 -5 -9
-13 -14 -16 -12 -8 8 22 -48 25 -69 4 -10 -10 -16 -11 -16 -4 0 7 -8 10 -20 7
-11 -3 -26 1 -34 8 -7 8 -16 11 -20 8 -3 -3 2 -12 12 -20 19 -16 -5 -6 -27 11
-18 14 -41 17 -41 5 0 -5 -10 -14 -22 -19 -18 -6 -27 -4 -39 10 -11 13 -28 18
-56 17 -32 -2 -39 1 -36 13 3 11 1 10 -10 -2 -8 -10 -20 -18 -28 -18 -11 0
-11 2 1 11 12 8 10 10 -10 6 -14 -3 -36 -9 -49 -13 -17 -5 -22 -4 -17 4 4 7 3
12 -3 12 -5 0 -13 -5 -16 -10 -4 -6 -11 -8 -16 -4 -5 3 -7 9 -5 13 3 4 -1 8
-9 8 -8 0 -12 -4 -9 -9 8 -12 -10 -10 -24 4 -9 9 -12 9 -13 -2 -1 -8 -1 -19 1
-25 1 -5 -9 1 -21 14 -15 16 -24 20 -27 12 -3 -9 -7 -9 -18 0 -11 9 -18 8 -31
-2 -9 -8 -14 -9 -10 -3 4 7 0 17 -8 24 -8 7 -12 16 -9 21 3 5 0 9 -7 9 -6 0
-9 -8 -6 -19 3 -15 0 -17 -16 -13 -12 3 -18 1 -14 -5 4 -6 -3 -13 -15 -16 -29
-8 -33 -3 -12 17 19 20 14 28 -18 30 -28 2 -47 -14 -41 -34 4 -13 4 -13 -6 0
-12 17 -15 43 -3 36 4 -2 9 4 9 15 2 17 0 18 -13 4 -17 -17 -39 -21 -29 -5 3
6 -1 7 -9 4 -11 -4 -16 0 -16 10 0 9 -8 16 -17 16 -17 1 -17 1 0 14 21 17 23
30 1 18 -16 -9 -64 6 -64 20 0 4 -14 5 -32 1 -22 -4 -29 -3 -24 5 5 8 2 10 -8
6 -9 -3 -16 -1 -16 5 0 7 -13 10 -34 8 -29 -3 -33 -2 -28 16 3 14 1 18 -6 13
-7 -4 -12 -1 -12 6 0 9 -3 9 -10 -2 -9 -15 -11 -13 -14 12 0 7 -10 13 -21 13
-13 0 -21 8 -23 23 -3 19 -6 21 -18 11 -14 -11 -19 -2 -15 24 1 4 -15 5 -35 1
-23 -4 -35 -3 -31 3 7 11 -28 53 -44 53 -6 0 -7 5 -4 11 7 10 -30 49 -47 49
-5 0 4 12 19 26 15 14 22 22 15 19 -11 -6 -12 -3 -2 14 6 12 16 19 23 16 7 -4
3 1 -7 9 -11 9 -17 16 -13 16 15 0 -14 39 -45 61 -18 14 -28 17 -24 8 4 -7 -1
-4 -11 7 -14 16 -27 20 -46 17 -18 -4 -27 -1 -27 8 0 7 -3 9 -7 6 -3 -4 -14 0
-24 9 -10 9 -25 14 -34 10 -9 -3 -18 0 -21 8 -3 9 -19 13 -45 11 -21 -2 -36 1
-33 6 3 5 0 9 -5 9 -6 0 -11 9 -11 20 0 14 -7 20 -21 20 -17 0 -19 3 -11 13 9
10 8 19 -3 34 -13 18 -13 22 0 33 8 7 13 16 10 20 -3 5 0 12 6 16 8 4 9 3 5
-4 -4 -7 -1 -12 8 -12 9 0 16 4 16 10 0 5 6 7 14 4 9 -3 13 1 13 12 -1 11 6
20 17 22 11 2 16 0 12 -6 -3 -6 -2 -14 4 -17 7 -4 10 5 8 24 -1 20 -6 27 -12
21 -12 -12 -39 -13 -32 -2 3 5 0 9 -7 9 -7 0 -50 3 -97 6 -47 3 -137 2 -200
-3z m214 -156 c3 -8 2 -12 -4 -9 -6 3 -10 10 -10 16 0 14 7 11 14 -7z m-1110
-696 c-6 -10 -4 -10 8 0 18 14 73 -1 63 -18 -3 -5 1 -10 9 -10 10 0 13 6 9 18
-6 16 -5 16 14 -1 17 -15 21 -15 26 -4 4 10 16 13 36 11 20 -2 31 1 31 9 0 8
3 8 9 -2 6 -9 21 -12 46 -9 32 4 35 3 19 -9 -15 -11 -16 -13 -1 -19 15 -5 15
-8 -1 -29 -9 -13 -20 -21 -24 -18 -4 2 -5 -3 -2 -11 5 -13 -1 -16 -30 -16 -46
0 -48 0 -68 -11 -10 -5 -18 -6 -18 -1 0 4 -15 12 -32 18 -18 5 -32 15 -30 22
1 6 -5 12 -13 12 -8 0 -15 6 -15 14 0 8 -9 13 -22 12 -13 -1 -26 3 -30 8 -6
10 8 46 18 46 3 0 2 -6 -2 -12z m2066 -22 c0 -3 -4 -8 -10 -11 -5 -3 -10 -1
-10 4 0 6 5 11 10 11 6 0 10 -2 10 -4z m610 -41 c0 -9 -6 -12 -16 -8 -13 5
-13 7 -2 14 17 11 18 11 18 -6z m-2575 -945 c-3 -5 -11 -10 -16 -10 -6 0 -7 5
-4 10 3 6 11 10 16 10 6 0 7 -4 4 -10z m45 6 c0 -3 -4 -8 -10 -11 -5 -3 -10
-1 -10 4 0 6 5 11 10 11 6 0 10 -2 10 -4z m64 -24 c2 -4 -4 -8 -15 -8 -10 0
-19 4 -19 8 0 4 6 8 14 8 8 0 17 -4 20 -8z m537 -25 c-10 -9 -11 -8 -5 6 3 10
9 15 12 12 3 -3 0 -11 -7 -18z"/>
<path d="M2767 5093 c-4 -3 -7 -11 -7 -17 0 -6 5 -5 12 2 6 6 9 14 7 17 -3 3
-9 2 -12 -2z"/>
<path d="M4097 4209 c4 -13 8 -18 11 -10 2 7 -1 18 -6 23 -8 8 -9 4 -5 -13z"/>
<path d="M2005 3180 c3 -5 11 -10 16 -10 6 0 7 5 4 10 -3 6 -11 10 -16 10 -6
0 -7 -4 -4 -10z"/>
<path d="M56 3066 c-9 -36 2 -55 40 -71 34 -14 45 -40 22 -47 -8 -3 -5 -11 9
-23 12 -10 20 -21 18 -24 -1 -3 15 -6 38 -6 36 0 43 5 66 39 23 35 28 38 63
33 22 -3 46 -15 61 -31 21 -23 26 -24 37 -11 10 12 16 13 28 3 13 -11 14 -11
8 1 -6 9 0 21 15 35 14 11 20 18 15 14 -5 -4 -19 3 -32 15 -16 16 -48 26 -116
38 -51 9 -97 13 -102 8 -9 -8 -42 7 -66 32 -8 8 -34 16 -56 17 -37 2 -42 0
-48 -22z m183 -55 c-15 -5 -22 6 -14 19 6 9 10 9 16 -1 5 -8 4 -15 -2 -18z"/>
<path d="M3736 3031 c-4 -7 -5 -15 -2 -18 9 -9 19 4 14 18 -4 11 -6 11 -12 0z"/>
<path d="M4670 2880 c0 -5 5 -10 11 -10 5 0 7 5 4 10 -3 6 -8 10 -11 10 -2 0
-4 -4 -4 -10z"/>
<path d="M5038 2652 c-35 -3 -49 -14 -30 -25 4 -3 28 -8 55 -12 43 -7 47 -5
47 13 0 22 -18 28 -72 24z"/>
<path d="M4660 1858 c0 -5 37 -8 82 -8 45 0 79 3 75 6 -8 9 -157 11 -157 2z"/>
<path d="M3973 1833 c9 -2 23 -2 30 0 6 3 -1 5 -18 5 -16 0 -22 -2 -12 -5z"/>
<path d="M4446 1705 c-11 -11 -14 -25 -10 -39 3 -11 7 -25 8 -29 1 -11 -210
-14 -1254 -22 -443 -3 -920 -8 -1060 -11 -696 -14 -1744 -34 -1815 -34 -44 0
-86 -4 -93 -9 -10 -6 -4 -27 27 -94 37 -80 48 -93 76 -87 6 1 24 3 40 5 17 1
41 6 55 10 14 4 33 8 43 8 9 1 17 5 17 9 0 4 22 6 50 5 35 -1 50 -6 50 -16 0
-10 -4 -11 -12 -3 -9 7 -20 5 -37 -9 -13 -11 -21 -22 -18 -26 4 -3 13 -1 20 5
11 9 14 8 14 -4 0 -10 -8 -14 -26 -12 -14 2 -25 9 -24 16 4 18 -14 15 -27 -5
-10 -16 -11 -16 -6 -1 6 19 -10 27 -38 20 -20 -5 -20 -5 0 -13 11 -4 -4 -7
-39 -6 -56 1 -85 -11 -73 -31 3 -5 20 -8 38 -6 22 3 28 1 19 -5 -8 -5 -20 -7
-28 -4 -7 3 -13 0 -13 -6 0 -7 7 -14 15 -17 8 -4 13 -10 10 -14 -10 -16 119
-212 224 -340 85 -104 350 -365 318 -313 -6 9 -3 11 7 7 9 -3 13 -10 10 -15
-3 -5 5 -9 16 -9 15 0 20 -5 17 -14 -7 -18 9 -32 46 -41 15 -4 27 -14 27 -24
1 -20 77 -74 92 -65 7 4 8 2 4 -5 -10 -16 52 -41 79 -31 11 4 25 5 31 3 6 -2
17 3 24 12 7 8 19 15 26 15 8 0 14 6 14 13 0 8 11 12 28 11 15 -1 40 -3 56 -3
28 -1 28 -2 13 -19 -10 -10 -14 -22 -10 -25 3 -4 -1 -7 -11 -7 -9 0 -14 5 -11
10 6 9 2 12 -27 14 -7 1 -14 -9 -14 -21 -1 -17 2 -20 15 -14 21 11 41 3 41
-15 0 -9 -11 -14 -27 -14 -25 -1 -26 -2 -10 -11 10 -6 30 -8 43 -5 22 6 27 1
44 -36 18 -39 20 -40 20 -15 0 31 7 34 26 10 12 -16 15 -16 24 -3 9 13 10 13
10 0 0 -13 2 -13 9 0 6 8 7 18 5 22 -3 4 2 8 10 8 9 0 16 5 16 10 0 13 -16 13
-39 -2 -14 -9 -23 -7 -42 7 -20 14 -20 16 -4 10 23 -7 25 -8 43 -6 7 0 10 6 7
11 -6 10 44 34 53 25 3 -2 11 0 18 6 8 7 19 7 31 0 28 -15 57 -24 69 -22 7 1
25 -4 40 -10 41 -17 55 -19 47 -7 -4 7 1 9 15 6 12 -3 26 0 32 7 6 8 18 11 27
8 8 -3 19 0 23 7 7 11 118 21 244 21 15 0 45 8 67 19 21 11 47 20 59 20 22 0
27 24 8 36 -7 5 -9 2 -5 -8 4 -12 -2 -17 -24 -20 -16 -3 -29 -1 -29 4 0 4 -5
8 -11 8 -6 0 -9 -7 -6 -15 5 -11 1 -12 -17 -5 -25 9 -39 8 -69 -5 -21 -9 -29
-4 -18 13 7 11 60 21 214 39 41 4 47 3 47 -13 1 -17 3 -16 22 6 12 15 19 18
15 8 -3 -9 -1 -19 6 -21 18 -6 48 4 41 14 -7 12 27 11 46 -1 12 -8 10 -10 -10
-10 -19 0 -22 -2 -10 -10 10 -6 20 -5 30 4 8 7 22 11 30 9 13 -4 13 -3 0 6
-17 12 -8 16 45 24 17 2 39 8 49 12 14 6 17 5 12 -3 -4 -6 -21 -16 -39 -21
-30 -9 -29 -9 13 -6 34 2 45 7 44 19 -1 11 7 16 28 16 16 0 49 5 74 11 30 8
48 8 57 1 6 -6 37 -12 67 -14 30 -1 58 -7 63 -13 4 -7 10 -6 15 1 10 14 52 25
52 12 0 -5 5 -6 10 -3 6 4 16 2 23 -3 16 -12 177 -25 177 -14 0 5 50 12 112
16 61 4 121 12 132 18 17 9 19 8 9 -3 -21 -21 -15 -29 12 -19 14 5 45 8 68 6
l42 -4 -50 15 c-56 18 -55 19 35 33 104 18 191 11 159 -12 -10 -6 -7 -7 10 -3
17 5 22 4 16 -5 -5 -8 -4 -11 2 -7 5 3 56 8 113 11 65 3 106 9 111 17 4 8 21
10 48 6 24 -3 44 -1 48 5 3 6 2 8 -4 5 -5 -3 -27 -2 -48 3 -22 5 -44 5 -50 1
-5 -5 -25 -8 -44 -8 -30 0 -32 2 -16 13 10 8 22 11 26 8 5 -3 17 0 26 5 17 10
16 10 -2 12 -58 4 -90 10 -99 19 -7 7 -3 10 12 10 12 0 22 5 22 10 0 6 -5 10
-11 10 -5 0 -7 5 -4 10 3 6 11 10 16 10 6 0 7 -4 4 -10 -4 -6 10 -10 34 -10
24 0 41 -5 41 -11 0 -7 11 -9 29 -6 16 4 31 3 33 -2 5 -14 158 -24 158 -10 0
6 -9 13 -20 16 -11 3 -20 9 -20 14 0 5 -10 9 -23 9 -13 0 -28 5 -34 11 -6 6
-31 12 -55 13 -24 1 -49 5 -56 9 -15 10 -94 21 -142 19 -27 -1 -31 1 -18 9 18
10 200 0 193 -11 -5 -8 77 -27 157 -36 40 -5 55 -10 51 -19 -8 -23 91 -18 112
5 18 19 17 20 -24 14 -25 -4 -47 -1 -56 6 -7 6 -37 13 -66 15 -75 6 -129 16
-129 24 0 4 -34 15 -75 26 -46 11 -75 23 -75 32 0 8 11 13 28 13 20 0 23 -3
13 -9 -12 -8 -8 -11 15 -16 16 -3 37 -10 46 -16 10 -5 33 -9 52 -9 18 0 39 -6
45 -14 14 -17 55 -26 73 -15 9 6 8 9 -5 13 -9 4 -24 8 -33 11 -30 10 -10 11
56 5 36 -4 59 -8 52 -8 -22 -3 -4 -19 30 -27 82 -19 80 -20 154 57 l69 73 -55
6 c-46 5 -49 6 -20 9 19 2 46 3 59 2 23 -1 37 10 85 68 18 22 18 23 -10 46
l-29 24 33 -16 c31 -15 34 -15 47 2 12 17 11 19 -6 22 -24 4 -24 7 1 32 11 11
20 16 20 10 0 -15 26 -12 40 5 11 13 8 15 -21 15 -34 0 -62 -11 -60 -24 1 -9
-2 -10 -29 -1 l-25 9 25 6 c48 13 -73 22 -136 11 -68 -13 -101 -36 -42 -29 20
2 34 0 32 -4 -8 -12 -56 -9 -84 5 -15 8 -45 11 -75 8 -46 -4 -48 -5 -20 -12
22 -6 15 -7 -25 -4 -30 2 -47 1 -37 -2 19 -5 23 -23 5 -23 -17 1 -118 26 -142
36 -15 6 -18 4 -14 -7 7 -19 -33 -20 -45 -2 -8 13 -111 11 -204 -3 -48 -7 -49
-24 -2 -24 17 0 28 3 26 8 -3 4 16 6 41 5 26 -1 67 -2 92 -2 38 -1 42 -3 30
-15 -8 -8 -35 -17 -60 -20 -31 -4 -39 -3 -25 3 17 8 15 10 -12 10 -44 1 -48 0
-46 -9 1 -4 -14 -4 -35 1 -20 5 -46 8 -57 8 -17 -1 -16 -2 5 -9 17 -6 2 -8
-50 -7 -42 0 -82 -3 -90 -7 -8 -4 -7 -1 2 7 10 8 15 17 11 20 -6 7 26 11 59 8
9 -1 20 3 24 10 5 9 -11 11 -65 7 -51 -4 -69 -2 -62 5 6 6 38 12 72 13 80 3
90 14 12 13 -33 -1 -70 4 -83 11 -12 7 -52 14 -89 16 -64 3 -65 3 -38 -12 15
-8 31 -12 36 -9 5 3 20 1 32 -3 l23 -9 -22 -12 c-25 -13 -29 -31 -7 -31 8 0
15 -4 15 -9 0 -5 -16 -4 -37 2 -48 14 -51 16 -33 27 11 7 8 10 -12 10 -20 0
-26 4 -22 15 8 21 -3 19 -28 -4 l-20 -20 33 -9 c30 -8 26 -10 -33 -10 -37 0
-70 3 -73 9 -4 5 -26 9 -51 9 -26 0 -43 -4 -39 -10 3 -5 -7 -8 -23 -7 -16 1
-29 8 -29 15 0 13 12 15 65 12 17 -1 32 3 32 9 0 6 -13 11 -30 11 -20 0 -30 5
-30 15 0 13 12 19 32 16 4 0 5 6 2 14 -9 22 -28 18 -39 -7 -7 -15 -20 -24 -40
-26 -22 -2 -26 0 -16 7 12 8 10 12 -12 22 -21 9 -24 15 -15 22 9 6 7 7 -6 3
-11 -4 -26 0 -36 9 -12 11 -20 13 -25 6 -3 -6 -17 -11 -29 -11 -13 0 -29 -7
-36 -15 -12 -14 -7 -20 15 -15 6 1 1 -7 -10 -18 -20 -20 -20 -19 -43 7 -18 19
-22 21 -18 7 6 -16 4 -17 -10 -6 -13 12 -17 11 -25 -1 -6 -10 -9 -11 -9 -1 0
7 8 16 17 19 15 6 15 7 -3 15 -12 4 -5 5 17 2 48 -8 83 10 75 39 -3 13 2 27
17 40 l22 19 -69 -7 c-48 -5 -66 -4 -62 4 4 6 0 11 -8 11 -33 0 -15 -29 22
-35 54 -9 63 -15 20 -13 -20 2 -40 -1 -44 -5 -11 -11 -56 -8 -49 2 7 12 -58
26 -79 18 -8 -3 -17 -3 -21 1 -7 7 -13 9 -46 11 -11 0 -18 5 -15 9 2 4 -7 9
-22 10 -21 1 -24 0 -12 -8 11 -7 1 -10 -35 -10 -27 0 -68 -3 -90 -6 l-40 -5
30 15 30 14 -57 1 c-37 1 -58 -3 -61 -11 -3 -10 -10 -8 -25 5 -17 16 -23 16
-41 5 -27 -17 -27 -32 0 -17 17 8 20 8 14 -1 -5 -9 -1 -10 16 -5 17 5 21 4 14
-3 -9 -9 -72 -16 -115 -13 -10 1 -3 12 20 32 19 17 29 28 23 24 -7 -3 -13 -1
-13 4 0 6 -8 11 -17 11 -14 0 -15 -2 -5 -9 18 -11 -11 -41 -39 -41 -11 0 -30
-7 -42 -15 -23 -15 -71 -10 -61 6 3 5 -2 9 -11 9 -12 0 -14 -4 -5 -19 8 -16 6
-20 -13 -23 -12 -2 -35 -1 -52 1 -26 3 -27 5 -10 12 16 6 14 8 -12 8 -17 1
-35 -3 -38 -9 -3 -5 -15 -10 -26 -10 -11 0 -17 -4 -14 -10 3 -5 18 -10 32 -10
18 0 24 4 19 15 -3 8 -1 15 4 15 5 0 11 -9 15 -19 6 -21 42 -34 51 -19 4 7 9
6 13 -1 6 -8 17 -7 43 4 20 8 38 11 40 6 2 -5 24 -7 50 -4 26 3 45 9 42 14 -3
5 5 9 18 9 19 0 20 -2 8 -11 -11 -7 -6 -8 20 -3 19 3 58 6 87 6 50 0 68 9 41
22 -7 3 1 3 17 0 31 -6 50 -9 147 -18 58 -6 92 0 83 14 -3 5 5 5 17 2 19 -5
20 -7 6 -10 -22 -4 -24 -22 -3 -22 8 0 15 -7 15 -15 0 -12 13 -15 55 -15 30 0
54 -3 54 -7 -1 -5 0 -10 1 -13 1 -3 3 -13 5 -23 3 -16 1 -16 -13 -5 -9 7 -20
17 -24 22 -3 5 -29 9 -57 7 -30 -1 -51 2 -51 9 0 5 -7 10 -16 10 -8 0 -13 4
-9 9 3 5 -4 12 -15 16 -25 8 -161 -5 -176 -17 -7 -5 -16 -8 -20 -7 -5 1 -20
-1 -34 -4 -14 -4 -51 -9 -83 -11 -33 -3 -61 -7 -64 -9 -2 -3 -26 1 -54 8 -27
7 -49 10 -49 5 0 -24 -169 -14 -257 16 -23 7 -49 11 -58 8 -8 -4 -15 -1 -15 4
0 6 8 13 18 15 9 3 -1 5 -22 6 -62 2 -38 9 54 16 47 4 90 12 95 17 7 7 2 9
-15 5 -14 -4 -32 -2 -40 3 -10 7 8 10 58 10 39 0 72 4 72 9 0 6 -17 7 -37 4
-36 -5 -37 -5 -18 11 19 15 19 16 -8 6 -22 -8 -35 -6 -60 7 -52 28 -90 27
-101 -2 -3 -10 0 -12 11 -8 9 4 19 -1 25 -10 5 -10 16 -17 23 -17 8 0 15 -4
15 -9 0 -5 -26 -9 -57 -8 -32 1 -69 -3 -83 -7 -25 -9 -25 -9 -6 13 20 21 15
29 -7 11 -48 -40 -91 -60 -130 -59 -40 1 -40 2 -12 9 17 4 26 8 20 9 -5 1 -3
6 5 11 13 8 13 10 -2 10 -9 0 -18 -4 -20 -8 -3 -9 -68 -25 -68 -17 0 2 15 9
32 14 l33 9 -42 1 c-24 1 -43 6 -43 11 0 6 -5 10 -11 10 -5 0 -7 -4 -4 -10 4
-6 -44 -9 -130 -8 -75 1 -138 5 -141 10 -3 5 -9 6 -13 4 -20 -13 -64 -13 -105
-1 -41 12 -62 12 -181 -6 -99 -14 -141 -17 -155 -9 -25 13 -25 19 -2 18 30 -3
73 12 67 22 -4 6 -17 7 -30 4 -12 -3 -26 -1 -29 5 -4 6 -18 11 -32 11 -13 0
-24 5 -24 11 0 8 -4 8 -13 2 -22 -18 -61 -23 -131 -16 -46 4 -63 9 -53 15 9 5
30 6 47 3 20 -4 30 -1 30 7 1 8 7 5 15 -6 9 -12 15 -15 15 -7 0 8 6 11 16 7
10 -4 13 -2 8 6 -5 7 1 9 20 4 14 -3 26 -2 26 3 0 5 11 8 25 7 14 0 25 -5 25
-9 0 -4 8 -4 17 1 44 23 190 36 257 23 27 -5 49 -5 52 0 3 5 10 7 15 3 5 -3
29 -2 52 2 92 16 -18 23 -277 18 -251 -5 -262 -5 -262 13 0 10 11 30 24 43 15
15 23 19 19 9 -3 -9 -1 -22 4 -30 6 -11 15 -7 40 21 17 19 25 26 18 16 -12
-18 -12 -19 4 -13 9 3 17 3 17 -2 0 -4 11 -13 24 -19 21 -10 25 -8 30 14 4 13
11 24 17 24 6 0 9 -9 6 -20 -3 -11 -3 -20 0 -20 3 0 16 9 30 20 30 24 62 28
44 6 -9 -10 -8 -15 3 -19 9 -4 16 3 20 19 4 13 11 24 17 24 7 0 9 -10 5 -25
-4 -14 -2 -25 4 -25 5 0 10 6 10 14 0 8 7 16 15 20 13 4 13 2 5 -14 -11 -21
-13 -40 -2 -25 20 28 84 45 96 26 3 -5 17 -11 32 -14 20 -3 28 1 36 18 8 18
18 22 48 21 22 0 34 -4 27 -8 -16 -10 64 -5 81 5 6 5 17 5 22 2 5 -3 15 -3 22
1 13 8 234 18 308 15 30 -2 251 5 408 13 63 2 119 9 126 15 15 13 82 7 179
-15 4 -1 19 -2 33 -3 14 0 22 -5 19 -11 -3 -5 -3 -11 2 -11 35 -6 54 -5 59 2
3 5 11 9 17 9 7 0 6 -4 -3 -10 -18 -12 -12 -13 60 -14 30 -1 58 3 62 8 7 11
49 16 43 5 -6 -8 31 -19 60 -18 16 1 16 2 -5 9 -50 16 43 11 98 -5 52 -16 301
-23 587 -18 231 4 263 4 330 -2 52 -5 105 9 105 29 0 6 7 3 14 -7 10 -13 27
-17 67 -16 61 0 74 0 287 -2 101 -1 158 3 165 10 15 15 44 14 50 -1 3 -10 7
-10 20 1 13 10 31 11 74 6 109 -15 138 -17 232 -17 138 1 136 0 180 96 21 46
42 93 46 104 l6 22 -232 0 -231 0 5 29 c4 16 1 36 -7 46 -12 16 -13 16 -30 0z
m-3686 -285 c0 -5 -2 -10 -4 -10 -3 0 -8 5 -11 10 -3 6 -1 10 4 10 6 0 11 -4
11 -10z m-193 -86 c-3 -3 -12 -4 -19 -1 -8 3 -5 6 6 6 11 1 17 -2 13 -5z
m-150 -10 c-3 -3 -12 -4 -19 -1 -8 3 -5 6 6 6 11 1 17 -2 13 -5z m28 -34 c3
-5 -1 -10 -9 -10 -9 0 -16 5 -16 10 0 6 4 10 9 10 6 0 13 -4 16 -10z m-42 -7
c-7 -2 -19 -2 -25 0 -7 3 -2 5 12 5 14 0 19 -2 13 -5z m1497 -23 c11 -8 9 -9
-12 -8 -16 1 -28 6 -28 10 0 11 22 10 40 -2z m-903 -36 c-3 -3 -12 -4 -19 -1
-8 3 -5 6 6 6 11 1 17 -2 13 -5z m1621 -3 c11 -7 11 -9 -2 -14 -9 -4 -16 -2
-16 2 0 5 -10 7 -22 3 -14 -3 -19 -2 -14 6 8 14 35 15 54 3z m-1298 -23 c0 -5
-9 -8 -20 -8 -11 0 -20 -6 -20 -14 0 -8 -8 -13 -17 -11 -10 1 -17 8 -15 15 2
8 -4 11 -18 7 -11 -3 -18 -1 -15 3 3 5 -1 10 -7 13 -7 2 15 4 49 3 35 -1 63
-4 63 -8z m57 6 c-3 -3 -12 -4 -19 -1 -8 3 -5 6 6 6 11 1 17 -2 13 -5z m70 0
c-3 -3 -12 -4 -19 -1 -8 3 -5 6 6 6 11 1 17 -2 13 -5z m57 -3 c14 -22 -69 -40
-90 -19 -3 4 12 5 35 3 41 -4 57 9 24 18 -14 4 -13 5 4 6 12 0 24 -3 27 -8z
m1256 5 c0 -3 -4 -8 -10 -11 -5 -3 -10 -1 -10 4 0 6 5 11 10 11 6 0 10 -2 10
-4z m-1570 -16 c12 -7 10 -9 -8 -7 -12 0 -22 5 -22 9 0 11 12 10 30 -2z m205
-11 c-4 -5 -30 -9 -58 -8 -35 1 -44 3 -28 7 38 11 92 11 86 1z m329 -14 c-4
-8 -10 -15 -14 -15 -5 0 -14 -2 -22 -5 -7 -3 -22 1 -33 9 -19 14 -17 15 16 9
22 -3 39 -1 43 6 10 16 16 13 10 -4z m76 5 c0 -5 -4 -10 -10 -10 -5 0 -10 5
-10 10 0 6 5 10 10 10 6 0 10 -4 10 -10z m1024 -19 c-2 -3 -12 3 -22 13 -16
17 -16 18 5 5 12 -7 20 -15 17 -18z m-88 -56 c13 -13 13 -15 1 -15 -8 0 -17 7
-21 15 -3 8 -3 15 0 15 3 0 12 -7 20 -15z m-191 -5 c3 -5 1 -10 -4 -10 -6 0
-11 5 -11 10 0 6 2 10 4 10 3 0 8 -4 11 -10z m571 -2 c4 4 4 1 0 -5 -10 -18
-31 -16 -46 2 -11 14 -10 14 12 6 14 -5 29 -7 34 -3z m-211 -18 c-22 -3 -49
-4 -59 -1 -35 8 9 17 57 12 l42 -5 -40 -6z m120 7 c-9 -4 -13 -12 -11 -16 3
-4 -10 -3 -29 3 -47 15 -44 21 10 21 29 0 39 -2 30 -8z m1435 -1 c0 -2 -7 -6
-15 -10 -8 -3 -15 -1 -15 4 0 6 7 10 15 10 8 0 15 -2 15 -4z m60 -24 c-31 -2
-40 -6 -30 -12 10 -6 -4 -7 -37 -3 -37 4 -53 2 -53 -6 0 -6 -13 -11 -30 -11
-43 0 -37 18 8 25 20 3 52 9 71 13 19 4 52 5 75 2 l41 -5 -45 -3z m-1610 -2
c-8 -5 -19 -10 -25 -10 -5 0 -3 5 5 10 8 5 20 10 25 10 6 0 3 -5 -5 -10z m597
4 c-3 -3 -12 -4 -19 -1 -8 3 -5 6 6 6 11 1 17 -2 13 -5z m-284 -11 c-7 -2 -19
-2 -25 0 -7 3 -2 5 12 5 14 0 19 -2 13 -5z m890 -12 c8 -8 4 -11 -12 -11 -12
0 -19 -4 -16 -10 8 -13 -8 -13 -21 0 -6 6 -37 11 -68 11 -32 1 -54 5 -49 9 18
18 148 19 166 1z m78 -19 c-34 -2 -42 -6 -31 -13 11 -8 8 -9 -12 -6 -16 2 -28
0 -28 -4 0 -5 -7 -9 -15 -9 -12 0 -9 7 9 25 14 14 36 25 50 25 14 0 27 4 31
10 3 5 13 2 23 -8 16 -16 15 -17 -27 -20z m113 26 c-3 -4 -12 -8 -20 -8 -8 0
-14 4 -14 8 0 4 9 8 19 8 11 0 17 -4 15 -8z m273 -14 c-3 -3 -12 -4 -19 -1 -8
3 -5 6 6 6 11 1 17 -2 13 -5z m-297 -14 c13 -8 13 -10 -2 -10 -9 0 -20 5 -23
10 -8 13 5 13 25 0z m-419 -20 c-12 -7 -91 -2 -100 6 -2 2 22 3 54 3 32 -1 52
-4 46 -9z m44 -8 c-3 -3 -11 0 -18 7 -9 10 -8 11 6 5 10 -3 15 -9 12 -12z
m312 12 c-3 -3 -12 -4 -19 -1 -8 3 -5 6 6 6 11 1 17 -2 13 -5z m56 -21 c-7 -2
-19 -2 -25 0 -7 3 -2 5 12 5 14 0 19 -2 13 -5z m44 1 c-3 -3 -12 -4 -19 -1 -8
3 -5 6 6 6 11 1 17 -2 13 -5z m-91 -13 c-4 -5 -1 -11 6 -13 7 -3 5 -7 -6 -11
-10 -4 -15 -3 -11 3 4 6 -14 10 -45 10 -37 0 -49 -3 -44 -12 5 -8 2 -9 -10 -5
-10 4 -27 7 -39 8 -16 0 -13 4 13 13 40 16 144 21 136 7z m152 2 c-10 -2 -26
-2 -35 0 -10 3 -2 5 17 5 19 0 27 -2 18 -5z m146 -2 c18 -7 18 -8 2 -14 -10
-4 -23 -4 -29 0 -5 3 -24 10 -41 14 -30 7 -30 7 9 7 22 0 49 -3 59 -7z m-951
-8 c-7 -2 -19 -2 -25 0 -7 3 -2 5 12 5 14 0 19 -2 13 -5z m43 -18 c13 -13 13
-15 1 -15 -8 0 -17 7 -21 15 -3 8 -3 15 0 15 3 0 12 -7 20 -15z m362 8 c-10
-2 -26 -2 -35 0 -10 3 -2 5 17 5 19 0 27 -2 18 -5z m469 1 c-3 -3 -12 -4 -19
-1 -8 3 -5 6 6 6 11 1 17 -2 13 -5z m-771 -22 c-10 -2 -22 0 -28 6 -6 6 0 7
19 4 21 -5 23 -7 9 -10z m-146 1 c-8 -3 -23 -10 -32 -15 -14 -6 -16 -5 -12 7
4 8 18 15 33 14 15 0 20 -3 11 -6z m60 -16 c9 -3 4 -6 -12 -6 -21 -1 -26 3
-21 15 3 9 9 11 12 6 3 -5 13 -12 21 -15z m137 17 c-3 -3 -12 -4 -19 -1 -8 3
-5 6 6 6 11 1 17 -2 13 -5z m-547 -20 c0 -2 -18 -4 -41 -4 -22 0 -38 4 -35 8
5 8 76 4 76 -4z m603 9 c-7 -2 -19 -2 -25 0 -7 3 -2 5 12 5 14 0 19 -2 13 -5z
m-500 -10 c3 -4 -17 -8 -44 -8 -27 0 -49 2 -49 6 0 9 88 11 93 2z m87 -3 c0
-5 -9 -10 -19 -10 -11 0 -23 5 -26 10 -4 6 5 10 19 10 14 0 26 -4 26 -10z
m948 -6 c23 -4 42 -11 42 -15 0 -5 10 -10 23 -10 12 -1 -3 -5 -33 -10 -59 -9
-168 7 -152 23 4 4 22 3 39 -3 18 -6 44 -9 60 -7 l28 4 -30 8 c-16 4 -39 12
-50 17 -17 8 -17 9 5 4 14 -3 44 -8 68 -11z m-2013 -4 c3 -5 1 -10 -4 -10 -6
0 -11 5 -11 10 0 6 2 10 4 10 3 0 8 -4 11 -10z m1656 -8 c-24 -2 -47 0 -52 5
-4 4 15 6 44 3 l52 -5 -44 -3z m-264 2 c-3 -3 -12 -4 -19 -1 -8 3 -5 6 6 6 11
1 17 -2 13 -5z m148 -12 c-3 -3 -11 0 -18 7 -9 10 -8 11 6 5 10 -3 15 -9 12
-12z m255 14 c0 -2 -7 -6 -15 -10 -8 -3 -15 -1 -15 4 0 6 7 10 15 10 8 0 15
-2 15 -4z m-562 -13 c-10 -2 -26 -2 -35 0 -10 3 -2 5 17 5 19 0 27 -2 18 -5z
m662 -19 c0 -2 -7 -4 -15 -4 -8 0 -15 4 -15 10 0 5 7 7 15 4 8 -4 15 -8 15
-10z m-410 -9 c0 -8 -7 -15 -15 -15 -8 0 -15 7 -15 15 0 8 7 15 15 15 8 0 15
-7 15 -15z m246 3 c3 -5 29 -7 57 -5 29 2 40 2 24 0 -15 -2 -25 -9 -22 -14 8
-12 -6 -11 -63 2 -58 14 -75 28 -33 27 17 -1 34 -5 37 -10z m289 -28 c8 -13
-15 -13 -35 0 -12 8 -11 10 7 10 12 0 25 -4 28 -10z m78 -7 c-7 -2 -19 -2 -25
0 -7 3 -2 5 12 5 14 0 19 -2 13 -5z m-720 -10 c-7 -2 -21 -2 -30 0 -10 3 -4 5
12 5 17 0 24 -2 18 -5z m-458 -43 c3 -6 -1 -7 -9 -4 -18 7 -21 14 -7 14 6 0
13 -4 16 -10z m252 4 c-3 -3 -12 -4 -19 -1 -8 3 -5 6 6 6 11 1 17 -2 13 -5z
m249 -42 c-9 -9 -37 8 -31 18 5 8 11 7 21 -1 8 -6 12 -14 10 -17z m-451 8 c3
-5 1 -10 -4 -10 -6 0 -11 5 -11 10 0 6 2 10 4 10 3 0 8 -4 11 -10z m375 -4 c0
-2 -9 -6 -20 -9 -11 -3 -20 -1 -20 4 0 5 9 9 20 9 11 0 20 -2 20 -4z m-86 -17
l31 -1 -28 -10 c-19 -7 -41 -7 -71 1 -23 5 -53 8 -66 5 -22 -4 -23 -3 -5 6 11
5 40 7 64 5 24 -3 58 -5 75 -6z m216 1 c24 -15 7 -19 -20 -5 -15 8 -19 14 -10
14 8 1 22 -3 30 -9z m-395 -30 c-3 -5 -12 -7 -20 -3 -21 7 -19 13 6 13 11 0
18 -4 14 -10z m455 5 c0 -3 -10 -9 -21 -13 -20 -8 -19 -9 12 -25 l34 -17 -28
0 c-16 0 -40 8 -53 19 l-23 18 22 11 c24 11 57 15 57 7z m-114 -23 c-3 -5 -19
-12 -35 -14 -17 -2 -28 -1 -25 4 3 4 16 8 30 8 13 0 24 5 24 12 0 6 3 9 6 5 3
-3 3 -10 0 -15z m-253 1 c-7 -2 -21 -2 -30 0 -10 3 -4 5 12 5 17 0 24 -2 18
-5z m-275 -20 c-10 -2 -26 -2 -35 0 -10 3 -2 5 17 5 19 0 27 -2 18 -5z m322 3
c0 -2 -7 -6 -15 -10 -8 -3 -15 -1 -15 4 0 6 7 10 15 10 8 0 15 -2 15 -4z
m-445 -16 c4 -6 -6 -10 -22 -9 -25 0 -26 1 -8 9 11 5 21 9 22 9 1 1 5 -3 8 -9z
m202 4 c-3 -3 -12 -4 -19 -1 -8 3 -5 6 6 6 11 1 17 -2 13 -5z m295 -8 c9 5 10
4 3 -4 -12 -13 -57 -4 -49 10 3 5 11 4 19 -2 8 -7 20 -8 27 -4z m-245 -2 c-3
-3 -12 -4 -19 -1 -8 3 -5 6 6 6 11 1 17 -2 13 -5z m-142 -22 c-3 -3 -11 0 -18
7 -9 10 -8 11 6 5 10 -3 15 -9 12 -12z m232 3 c2 -6 -13 -12 -32 -13 -36 -3
-49 13 -17 21 25 7 45 4 49 -8z m-159 -2 c-10 -2 -28 -2 -40 0 -13 2 -5 4 17
4 22 1 32 -1 23 -4z m-128 -29 c25 3 39 3 32 0 -6 -3 -10 -9 -8 -13 3 -4 -28
-7 -68 -7 -65 1 -72 3 -63 18 8 13 16 14 36 6 14 -5 46 -7 71 -4z m253 -6 c-5
-9 -182 -2 -191 7 -3 3 40 4 95 3 56 -2 99 -6 96 -10z m-2338 -8 c3 -5 2 -10
-4 -10 -5 0 -13 5 -16 10 -3 6 -2 10 4 10 5 0 13 -4 16 -10z m210 -26 c15 5
16 4 6 -8 -7 -8 -10 -19 -7 -24 3 -5 -9 -4 -27 2 -44 15 -58 26 -51 37 3 5 9
7 14 4 5 -3 12 0 15 5 5 7 11 5 20 -6 8 -11 18 -15 30 -10z m198 -34 c-7 -8
-22 24 -16 34 4 5 10 1 13 -10 4 -10 6 -21 3 -24z m122 0 c3 -6 -4 -10 -17
-10 -18 0 -20 -2 -8 -10 11 -7 6 -10 -20 -10 -19 0 -42 5 -50 11 -11 8 -7 9
16 4 21 -4 35 -1 44 10 14 17 26 19 35 5z m160 -10 c-3 -5 -12 -10 -18 -10 -7
0 -6 4 3 10 19 12 23 12 15 0z m-53 -8 c8 10 9 10 5 -2 -5 -17 -63 -18 -80 -1
-7 7 1 7 28 0 29 -8 40 -8 47 3z m-519 -9 c-7 -2 -19 -2 -25 0 -7 3 -2 5 12 5
14 0 19 -2 13 -5z m869 0 c-6 -2 -9 -10 -6 -15 4 -7 2 -8 -5 -4 -13 9 -5 26
12 25 9 0 8 -2 -1 -6z m-507 -43 c3 -5 1 -10 -4 -10 -6 0 -11 5 -11 10 0 6 2
10 4 10 3 0 8 -4 11 -10z m309 -2 c-3 -4 -12 -8 -20 -8 -8 0 -14 4 -14 8 0 4
9 8 19 8 11 0 17 -4 15 -8z m-350 -12 c-6 -15 -54 -17 -54 -2 0 4 9 6 20 3 11
-3 23 -1 26 4 8 14 14 11 8 -5z"/>
<path d="M2288 1428 c9 -9 15 -9 24 0 9 9 7 12 -12 12 -19 0 -21 -3 -12 -12z"/>
<path d="M2400 1410 c36 -11 52 -11 45 0 -3 6 -21 10 -38 9 -31 -1 -31 -1 -7
-9z"/>
<path d="M2656 1392 c-2 -4 12 -6 32 -4 62 6 69 10 20 11 -26 0 -49 -3 -52 -7z"/>
<path d="M2281 1311 c-20 -5 -16 -9 28 -23 28 -9 51 -12 51 -8 0 5 -6 11 -12
14 -13 5 51 -2 87 -10 18 -4 18 -4 3 6 -10 6 -41 12 -70 13 -29 1 -55 4 -58 8
-3 3 -16 3 -29 0z"/>
<path d="M2808 1313 c7 -3 16 -2 19 1 4 3 -2 6 -13 5 -11 0 -14 -3 -6 -6z"/>
<path d="M3815 1310 c-18 -8 -18 -9 5 -10 14 -1 41 -4 60 -6 20 -2 30 0 25 5
-15 13 -68 20 -90 11z"/>
<path d="M4084 1308 c-3 -4 21 -7 53 -7 60 1 56 5 -10 11 -21 2 -40 0 -43 -4z"/>
<path d="M2470 1285 c35 -26 67 -34 54 -14 -6 11 -65 39 -81 39 -4 0 8 -11 27
-25z"/>
<path d="M3675 1299 c-11 -17 1 -21 15 -4 8 9 8 15 2 15 -6 0 -14 -5 -17 -11z"/>
<path d="M3734 1294 c5 -12 1 -14 -15 -9 -15 5 -19 4 -15 -4 10 -16 43 -14 49
3 6 15 -1 26 -16 26 -5 0 -6 -7 -3 -16z"/>
<path d="M4557 1296 c-5 -13 2 -16 41 -17 32 0 41 -3 28 -8 -14 -5 -16 -10 -8
-15 7 -4 17 -4 23 0 18 10 90 13 83 3 -3 -5 4 -9 14 -9 11 0 23 7 26 16 4 10
2 13 -6 8 -7 -5 -9 -1 -6 12 4 17 0 19 -36 15 -23 -3 -33 -6 -23 -9 9 -2 15
-8 12 -13 -4 -5 -15 -4 -28 3 -12 6 -39 10 -61 9 -22 -2 -42 2 -46 9 -5 8 -9
7 -13 -4z"/>
<path d="M1670 1290 c-13 -8 -12 -10 3 -10 9 0 17 5 17 10 0 12 -1 12 -20 0z"/>
<path d="M1958 1293 c7 -3 16 -2 19 1 4 3 -2 6 -13 5 -11 0 -14 -3 -6 -6z"/>
<path d="M2110 1291 c0 -12 91 -20 110 -10 18 10 19 10 -52 15 -32 2 -58 0
-58 -5z"/>
<path d="M3348 1293 c7 -3 16 -2 19 1 4 3 -2 6 -13 5 -11 0 -14 -3 -6 -6z"/>
<path d="M3488 1293 c7 -3 16 -2 19 1 4 3 -2 6 -13 5 -11 0 -14 -3 -6 -6z"/>
<path d="M3545 1290 c-16 -7 -17 -9 -3 -9 9 -1 24 -4 34 -8 11 -4 15 -2 12 7
-6 18 -18 21 -43 10z"/>
<path d="M4453 1293 c15 -2 37 -2 50 0 12 2 0 4 -28 4 -27 0 -38 -2 -22 -4z"/>
<path d="M1372 1282 c-10 -3 -10 -7 -1 -18 9 -11 8 -14 -1 -14 -8 0 -11 -2 -8
-5 3 -3 14 -2 26 2 17 7 18 11 9 24 -7 9 -18 14 -25 11z"/>
<path d="M1560 1275 c7 -8 27 -15 44 -15 21 0 27 3 17 9 -7 5 -22 6 -32 4 -10
-3 -19 0 -19 6 0 6 -5 11 -11 11 -8 0 -8 -5 1 -15z"/>
<path d="M3245 1280 c-17 -7 -14 -9 13 -9 20 -1 31 3 27 9 -7 12 -13 12 -40 0z"/>
<path d="M3780 1286 c0 -2 9 -6 20 -9 11 -3 20 -1 20 4 0 5 -9 9 -20 9 -11 0
-20 -2 -20 -4z"/>
<path d="M4255 1280 c11 -5 16 -9 10 -10 -5 -1 1 -6 15 -10 25 -8 25 -8 2 -9
-13 -1 -21 -5 -18 -9 2 -4 23 -6 46 -4 l41 4 -35 24 c-19 13 -45 24 -58 23
-22 0 -22 -1 -3 -9z"/>
<path d="M995 1270 c-3 -5 1 -10 10 -10 9 0 13 5 10 10 -3 6 -8 10 -10 10 -2
0 -7 -4 -10 -10z"/>
<path d="M1056 1271 c-3 -5 1 -11 9 -14 9 -4 12 -1 8 9 -6 16 -10 17 -17 5z"/>
<path d="M1093 1273 c9 -2 25 -2 35 0 9 3 1 5 -18 5 -19 0 -27 -2 -17 -5z"/>
<path d="M1273 1273 c9 -2 23 -2 30 0 6 3 -1 5 -18 5 -16 0 -22 -2 -12 -5z"/>
<path d="M1336 1267 c3 -10 9 -15 12 -12 3 3 0 11 -7 18 -10 9 -11 8 -5 -6z"/>
<path d="M1500 1276 c0 -2 11 -6 25 -8 13 -3 22 -1 19 3 -5 9 -44 13 -44 5z"/>
<path d="M2963 1273 c9 -2 23 -2 30 0 6 3 -1 5 -18 5 -16 0 -22 -2 -12 -5z"/>
<path d="M3109 1264 c42 -18 82 -18 76 -1 -3 7 -26 13 -58 14 l-52 1 34 -14z"/>
<path d="M2070 1259 c0 -8 12 -10 35 -6 34 6 58 -6 33 -16 -8 -3 -6 -6 5 -6
21 -1 23 25 1 33 -26 10 -74 7 -74 -5z"/>
<path d="M2540 1260 c0 -5 5 -10 11 -10 5 0 7 5 4 10 -3 6 -8 10 -11 10 -2 0
-4 -4 -4 -10z"/>
<path d="M3428 1263 c7 -3 16 -2 19 1 4 3 -2 6 -13 5 -11 0 -14 -3 -6 -6z"/>
<path d="M4426 1261 c17 -4 36 -11 42 -15 7 -4 18 -4 24 0 16 10 -23 22 -67
22 l-30 0 31 -7z"/>
<path d="M1290 1250 c0 -5 6 -10 14 -10 8 0 18 5 21 10 3 6 -3 10 -14 10 -12
0 -21 -4 -21 -10z"/>
<path d="M1468 1253 c7 -3 16 -2 19 1 4 3 -2 6 -13 5 -11 0 -14 -3 -6 -6z"/>
<path d="M3055 1250 c3 -5 8 -10 11 -10 2 0 4 5 4 10 0 6 -5 10 -11 10 -5 0
-7 -4 -4 -10z"/>
<path d="M1515 1240 c-8 -13 15 -13 35 0 12 8 11 10 -7 10 -12 0 -25 -4 -28
-10z"/>
<path d="M1617 1239 c7 -7 15 -10 18 -7 3 3 -2 9 -12 12 -14 6 -15 5 -6 -5z"/>
<path d="M2770 1246 c0 -2 11 -6 25 -8 13 -3 22 -1 19 3 -5 9 -44 13 -44 5z"/>
<path d="M4382 1239 c18 -7 33 -7 45 0 14 8 9 10 -27 10 -42 -1 -43 -1 -18
-10z"/>
<path d="M4505 1240 c-3 -5 -1 -10 4 -10 6 0 11 5 11 10 0 6 -2 10 -4 10 -3 0
-8 -4 -11 -10z"/>
<path d="M2981 1231 c-10 -7 -7 -9 12 -8 14 1 23 5 20 10 -6 9 -15 9 -32 -2z"/>
<path d="M3110 1230 c-8 -5 -10 -10 -5 -10 6 0 3 -5 -5 -10 -9 -6 -10 -10 -3
-10 6 0 15 5 18 10 9 14 23 12 27 -3 2 -8 13 -11 33 -7 l30 6 -34 17 c-39 20
-41 20 -61 7z"/>
<path d="M3277 1233 c7 -2 9 -11 6 -19 -4 -10 3 -14 23 -14 23 0 26 2 14 10
-13 8 -13 10 2 10 9 0 21 -7 26 -16 7 -12 16 -14 42 -7 19 5 63 5 99 1 66 -8
89 -4 55 9 -10 4 -25 12 -32 19 -8 9 -48 12 -130 12 -64 -1 -112 -3 -105 -5z
m93 -24 c0 -6 -4 -7 -10 -4 -5 3 -10 11 -10 16 0 6 5 7 10 4 6 -3 10 -11 10
-16z"/>
<path d="M3697 1229 c-10 -6 -29 -8 -42 -5 -13 3 -27 2 -30 -4 -3 -5 -15 -10
-25 -10 -10 0 -22 -5 -26 -12 -5 -7 -2 -9 8 -5 9 3 21 0 28 -6 10 -9 11 -9 5
2 -6 11 -2 13 19 7 18 -4 25 -3 21 4 -3 5 2 10 12 10 11 0 28 7 39 15 22 17
17 19 -9 4z"/>
<path d="M3735 1230 c3 -5 8 -10 11 -10 2 0 4 5 4 10 0 6 -5 10 -11 10 -5 0
-7 -4 -4 -10z"/>
<path d="M2045 1220 c-4 -6 3 -10 14 -10 25 0 27 6 6 13 -8 4 -17 2 -20 -3z"/>
<path d="M3869 1216 c9 -11 9 -15 -1 -19 -8 -4 -7 -6 5 -6 11 -1 17 6 17 19 0
12 -7 20 -16 20 -13 0 -14 -3 -5 -14z"/>
<path d="M3955 1220 c4 -6 11 -8 16 -5 14 9 11 15 -7 15 -8 0 -12 -5 -9 -10z"/>
<path d="M3210 1210 c0 -5 14 -10 31 -10 17 0 28 4 24 10 -3 6 -17 10 -31 10
-13 0 -24 -4 -24 -10z"/>
<path d="M3771 1205 c11 -11 79 -16 79 -6 0 6 -19 11 -42 11 -23 0 -39 -2 -37
-5z"/>
<path d="M3990 1200 l-65 -7 72 -1 c39 -1 75 3 78 8 3 6 0 9 -7 8 -7 -1 -42
-4 -78 -8z"/>
<path d="M3678 1193 c7 -3 16 -2 19 1 4 3 -2 6 -13 5 -11 0 -14 -3 -6 -6z"/>
<path d="M4098 1193 c6 -2 18 -2 25 0 6 3 1 5 -13 5 -14 0 -19 -2 -12 -5z"/>
<path d="M4300 1191 c0 -5 8 -15 18 -22 15 -12 16 -12 5 2 -7 9 -10 19 -6 22
3 4 1 7 -5 7 -7 0 -12 -4 -12 -9z"/>
<path d="M4540 1189 c0 -5 -7 -6 -15 -3 -8 4 -15 1 -15 -5 0 -6 -5 -11 -11
-11 -5 0 -7 5 -3 12 5 7 3 8 -5 3 -23 -14 4 -26 33 -15 15 5 32 8 37 4 5 -3 9
1 9 9 0 7 -7 14 -15 14 -8 0 -15 -4 -15 -8z"/>
<path d="M1865 1180 c3 -5 10 -10 16 -10 5 0 9 5 9 10 0 6 -7 10 -16 10 -8 0
-12 -4 -9 -10z"/>
<path d="M4584 1178 c-6 -10 30 -9 71 2 26 7 23 8 -18 7 -27 0 -50 -4 -53 -9z"/>
<path d="M4390 1170 c-13 -8 -13 -10 2 -10 9 0 20 5 23 10 8 13 -5 13 -25 0z"/>
<path d="M4437 1169 c7 -7 15 -10 18 -7 3 3 -2 9 -12 12 -14 6 -15 5 -6 -5z"/>
<path d="M1958 1163 c6 -2 18 -2 25 0 6 3 1 5 -13 5 -14 0 -19 -2 -12 -5z"/>
<path d="M3220 1114 l-35 -13 33 0 c17 -1 32 -4 32 -8 0 -7 22 -8 98 -4 29 2
-2 21 -34 21 -19 0 -34 5 -34 10 0 13 -16 11 -60 -6z"/>
<path d="M3266 1072 c-7 -11 52 -28 61 -18 9 8 2 13 -28 21 -15 4 -30 2 -33
-3z"/>
<path d="M4108 1063 c7 -3 16 -2 19 1 4 3 -2 6 -13 5 -11 0 -14 -3 -6 -6z"/>
<path d="M4120 621 c0 -7 22 -11 52 -11 62 0 60 5 -4 14 -32 5 -48 4 -48 -3z"/>
<path d="M4075 590 c-14 -6 1 -9 48 -9 38 -1 67 3 67 9 0 12 -87 12 -115 0z"/>
<path d="M3615 569 c18 -5 33 -5 39 1 7 7 -4 10 -29 9 -40 -1 -40 -1 -10 -10z"/>
<path d="M3995 570 c3 -5 10 -10 16 -10 5 0 9 5 9 10 0 6 -7 10 -16 10 -8 0
-12 -4 -9 -10z"/>
<path d="M2721 541 c-10 -6 -9 -10 5 -15 20 -8 25 -4 16 11 -4 7 -13 9 -21 4z"/>
<path d="M2763 543 c4 -3 5 -9 1 -14 -3 -5 2 -9 10 -9 8 0 18 5 21 10 3 6 2
10 -4 10 -5 0 -15 2 -23 3 -7 2 -10 2 -5 0z"/>
<path d="M3630 542 c1 -20 16 -29 27 -17 9 10 8 14 -8 18 -10 3 -19 2 -19 -1z"/>
<path d="M3455 530 c-4 -6 7 -10 27 -9 27 0 30 2 13 9 -27 12 -33 12 -40 0z"/>
<path d="M3604 525 c21 -16 32 -13 21 4 -3 6 -14 11 -23 11 -15 -1 -15 -2 2
-15z"/>
<path d="M2885 510 c-4 -6 1 -7 11 -3 12 4 15 3 10 -5 -4 -7 -3 -12 3 -12 17
0 21 18 5 24 -21 8 -22 8 -29 -4z"/>
<path d="M3000 505 c0 -8 12 -21 28 -29 15 -8 38 -28 52 -45 23 -29 49 -44 35
-21 -10 15 1 12 63 -19 31 -15 75 -31 97 -35 52 -8 229 -14 190 -6 -25 4 -27
7 -12 13 10 4 33 7 50 8 18 0 26 3 20 6 -22 8 -14 23 12 23 29 0 34 16 8 24
-48 14 -120 -2 -80 -17 6 -3 2 -6 -10 -6 -13 -1 -23 3 -23 9 0 5 -18 14 -40
20 -24 6 -40 17 -40 25 0 10 -11 15 -36 15 -24 0 -33 4 -28 12 5 7 3 8 -6 3
-15 -9 -140 -13 -134 -3 2 3 -11 6 -29 5 -48 -1 -108 13 -102 24 4 5 1 9 -4 9
-6 0 -11 -7 -11 -15z"/>
<path d="M3271 516 c10 -9 79 -14 79 -5 0 5 -19 9 -42 9 -23 0 -39 -2 -37 -4z"/>
<path d="M3380 510 c0 -5 16 -10 35 -10 30 0 77 -20 95 -40 10 -12 86 -46 130
-59 25 -7 54 -17 65 -21 32 -13 181 -10 201 4 15 11 10 14 -34 20 -28 4 -54
11 -57 15 -3 5 -15 7 -27 3 -16 -4 -19 -2 -13 8 6 10 4 12 -9 7 -10 -4 -38 0
-62 8 -58 20 -81 20 -65 1 8 -10 9 -16 1 -21 -5 -3 -10 1 -10 9 0 17 -68 56
-99 56 -11 0 -21 4 -23 9 -5 13 -128 24 -128 11z"/>
<path d="M3538 513 c7 -3 16 -2 19 1 4 3 -2 6 -13 5 -11 0 -14 -3 -6 -6z"/>
<path d="M3791 494 c8 -10 22 -14 40 -10 17 3 32 0 39 -9 7 -8 16 -13 20 -10
5 3 11 1 14 -4 11 -16 -21 -20 -50 -5 -15 8 -35 13 -43 11 -18 -5 40 -33 82
-41 15 -2 31 -7 37 -11 5 -3 17 -2 26 3 17 9 17 10 -32 51 -18 15 -97 41 -127
41 -17 0 -18 -2 -6 -16z"/>
<path d="M2777 479 c13 -13 26 -18 34 -14 9 6 7 11 -6 22 -11 7 -26 13 -34 13
-12 0 -11 -5 6 -21z"/>
<path d="M3635 480 c4 -6 11 -8 16 -5 14 9 11 15 -7 15 -8 0 -12 -5 -9 -10z"/>
<path d="M3735 480 c-4 -6 6 -10 22 -10 22 0 25 2 13 10 -19 12 -27 12 -35 0z"/>
<path d="M2858 473 c7 -3 16 -2 19 1 4 3 -2 6 -13 5 -11 0 -14 -3 -6 -6z"/>
<path d="M2903 462 c4 -2 3 -10 -3 -17 -17 -20 14 -41 37 -23 24 17 26 34 5
34 -9 1 -24 3 -32 6 -8 3 -11 3 -7 0z m32 -22 c3 -5 -1 -10 -10 -10 -9 0 -13
5 -10 10 3 6 8 10 10 10 2 0 7 -4 10 -10z"/>
<path d="M2833 453 c9 -2 25 -2 35 0 9 3 1 5 -18 5 -19 0 -27 -2 -17 -5z"/>
<path d="M2735 400 c28 -12 47 -12 40 0 -3 6 -18 10 -33 9 -24 0 -25 -1 -7 -9z"/>
<path d="M3580 370 c0 -13 30 -13 50 0 11 7 7 10 -17 10 -18 0 -33 -4 -33 -10z"/>
<path d="M1280 360 c-12 -8 -11 -10 8 -10 12 0 22 5 22 10 0 13 -11 13 -30 0z"/>
<path d="M3550 360 c12 -7 8 -10 -15 -10 l-30 -1 25 -11 c32 -13 230 -19 267
-8 33 10 29 10 -104 15 -55 2 -110 8 -121 14 -26 14 -42 14 -22 1z"/>
<path d="M3658 363 c7 -3 16 -2 19 1 4 3 -2 6 -13 5 -11 0 -14 -3 -6 -6z"/>
<path d="M3000 335 c0 -13 64 -35 101 -35 48 0 50 6 4 11 -16 2 -39 9 -50 16
-19 13 -55 18 -55 8z"/>
<path d="M3268 333 c6 -2 18 -2 25 0 6 3 1 5 -13 5 -14 0 -19 -2 -12 -5z"/>
<path d="M3153 323 c9 -2 25 -2 35 0 9 3 1 5 -18 5 -19 0 -27 -2 -17 -5z"/>
<path d="M3258 303 c18 -2 45 -2 60 0 15 2 0 4 -33 4 -33 0 -45 -2 -27 -4z"/>
<path d="M3355 300 c-4 -6 5 -10 19 -10 14 0 26 5 26 10 0 6 -9 10 -19 10 -11
0 -23 -4 -26 -10z"/>
<path d="M3425 300 c-3 -5 -2 -10 4 -10 5 0 13 5 16 10 3 6 2 10 -4 10 -5 0
-13 -4 -16 -10z"/>
<path d="M3513 293 c9 -2 25 -2 35 0 9 3 1 5 -18 5 -19 0 -27 -2 -17 -5z"/>
<path d="M3598 293 c7 -3 16 -2 19 1 4 3 -2 6 -13 5 -11 0 -14 -3 -6 -6z"/>
<path d="M2305 263 c-16 -3 -36 -9 -42 -15 -14 -11 -8 -28 8 -28 6 0 8 4 5 9
-3 4 16 11 42 15 29 4 48 2 50 -4 2 -5 13 -9 25 -9 19 1 20 2 3 6 -15 4 -16 7
-5 14 11 7 9 9 -8 9 -12 0 -27 2 -35 3 -7 2 -26 2 -43 0z"/>
<path d="M2462 247 c18 -18 46 -28 52 -18 3 4 -6 13 -20 20 -33 15 -49 14 -32
-2z"/>
<path d="M2768 243 c7 -3 16 -2 19 1 4 3 -2 6 -13 5 -11 0 -14 -3 -6 -6z"/>
<path d="M2950 241 c25 -9 107 -15 99 -7 -2 2 -31 6 -64 9 -39 4 -51 3 -35 -2z"/>
<path d="M2833 233 c9 -2 23 -2 30 0 6 3 -1 5 -18 5 -16 0 -22 -2 -12 -5z"/>
<path d="M3075 230 c27 -12 43 -12 25 0 -8 5 -22 9 -30 9 -10 0 -8 -3 5 -9z"/>
<path d="M2543 223 c9 -2 23 -2 30 0 6 3 -1 5 -18 5 -16 0 -22 -2 -12 -5z"/>
<path d="M2395 210 c-3 -5 -1 -10 4 -10 6 0 11 5 11 10 0 6 -2 10 -4 10 -3 0
-8 -4 -11 -10z"/>
<path d="M3163 213 c9 -2 23 -2 30 0 6 3 -1 5 -18 5 -16 0 -22 -2 -12 -5z"/>
<path d="M2396 191 c-27 -6 -26 -7 18 -20 53 -15 68 -11 34 11 -14 8 -35 12
-52 9z"/>
<path d="M2266 168 c-14 -20 -14 -23 4 -35 21 -15 54 -13 72 5 7 7 17 12 23
12 5 0 3 -5 -5 -10 -8 -5 -10 -10 -5 -10 6 1 19 8 30 17 19 14 17 15 -34 9
-30 -3 -58 -11 -62 -18 -5 -8 -8 -5 -6 10 1 21 28 38 45 28 4 -2 14 -1 22 5
11 6 2 9 -27 9 -32 0 -46 -5 -57 -22z"/>
<path d="M2530 174 c-14 -8 -44 -19 -68 -25 -34 -8 -41 -13 -33 -23 6 -7 8
-16 4 -19 -3 -4 -1 -7 6 -7 8 0 11 7 7 15 -4 10 1 15 14 15 11 0 20 3 20 8 0
4 20 6 45 4 44 -4 75 9 75 30 0 6 -7 5 -16 -2 -12 -11 -15 -11 -12 0 4 18 -13
20 -42 4z"/>
<path d="M2863 173 c15 -2 25 -9 22 -14 -4 -5 1 -9 9 -9 9 0 16 4 16 9 0 12
-26 21 -53 20 -16 -2 -15 -3 6 -6z"/>
<path d="M2593 147 c-23 -12 -42 -25 -43 -29 0 -4 18 -12 39 -19 57 -17 171 4
148 28 -5 4 -12 1 -17 -6 -7 -12 -11 -11 -25 3 -16 16 -28 15 -71 -1 -7 -2
-15 0 -18 6 -4 5 3 12 14 16 11 3 20 11 20 16 0 11 4 12 -47 -14z"/>
<path d="M3005 160 c-3 -5 -2 -10 4 -10 5 0 13 5 16 10 3 6 2 10 -4 10 -5 0
-13 -4 -16 -10z"/>
<path d="M3240 142 c0 -4 9 -8 20 -9 11 -1 18 2 15 8 -7 11 -35 12 -35 1z"/>
<path d="M2108 133 c7 -3 16 -2 19 1 4 3 -2 6 -13 5 -11 0 -14 -3 -6 -6z"/>
<path d="M3082 133 c-25 -10 -1 -21 28 -13 18 5 32 5 35 -1 4 -5 18 -9 33 -9
24 1 22 3 -13 15 -41 15 -61 17 -83 8z"/>
<path d="M2760 117 c0 -8 -12 -20 -27 -26 l-28 -11 27 3 c16 3 29 -1 32 -9 3
-7 15 -14 28 -17 13 -2 5 -5 -19 -6 -25 0 -43 4 -43 10 0 5 -4 8 -8 5 -4 -2
-35 -7 -69 -11 -47 -5 -73 -2 -117 14 -31 11 -57 18 -57 15 -1 -2 -2 -8 -3
-13 -2 -17 -11 -19 -59 -11 -34 5 -50 3 -58 -6 -7 -9 -22 -12 -38 -8 l-26 6
29 -16 c15 -9 32 -13 37 -10 5 3 9 0 9 -5 0 -6 21 -11 50 -11 35 0 49 4 47 12
-3 16 35 11 45 -5 12 -20 361 -4 442 20 29 8 -1 23 -49 23 -37 1 -39 2 -21 15
20 15 20 15 0 15 -18 1 -18 2 -2 14 15 11 13 12 -15 13 -18 0 -49 4 -69 8 -31
6 -38 5 -38 -8z m-240 -64 c0 -10 -4 -14 -8 -8 -4 6 -11 13 -16 18 -5 4 -2 7
7 7 10 0 17 -8 17 -17z m-115 -23 c-3 -5 -11 -10 -16 -10 -6 0 -7 5 -4 10 3 6
11 10 16 10 6 0 7 -4 4 -10z m180 0 c-3 -5 -12 -10 -18 -10 -7 0 -6 4 3 10 19
12 23 12 15 0z m78 3 c-7 -2 -21 -2 -30 0 -10 3 -4 5 12 5 17 0 24 -2 18 -5z
m44 1 c-3 -3 -12 -4 -19 -1 -8 3 -5 6 6 6 11 1 17 -2 13 -5z"/>
<path d="M2175 101 l30 -21 -25 -1 c-14 -1 -35 -1 -47 -1 -13 1 -35 -6 -50
-13 -26 -14 -20 -14 67 -9 52 4 102 10 110 15 11 6 9 8 -9 9 -14 0 -32 6 -40
14 -9 7 -27 17 -41 21 -23 6 -23 5 5 -14z"/>
<path d="M3210 111 c0 -10 68 -13 74 -2 2 3 -14 7 -35 9 -21 1 -39 -2 -39 -7z"/>
<path d="M2345 100 c-3 -5 -1 -10 4 -10 6 0 11 5 11 10 0 6 -2 10 -4 10 -3 0
-8 -4 -11 -10z"/>
<path d="M2975 93 c-55 -8 -53 -24 3 -22 30 2 51 7 49 13 -4 12 -14 14 -52 9z"/>
<path d="M2035 74 c-22 -7 -29 -12 -15 -9 14 3 35 5 48 5 12 0 22 5 22 10 0
12 -5 12 -55 -6z"/>
<path d="M2390 80 c0 -5 4 -10 9 -10 6 0 13 5 16 10 3 6 -1 10 -9 10 -9 0 -16
-4 -16 -10z"/>
<path d="M2190 46 c0 -2 7 -6 15 -10 8 -3 15 -1 15 4 0 6 -7 10 -15 10 -8 0
-15 -2 -15 -4z"/>
<path d="M2253 43 c9 -2 23 -2 30 0 6 3 -1 5 -18 5 -16 0 -22 -2 -12 -5z"/>
</g>
</svg>
