<?xml version="1.0" standalone="no"?>
<!DOCTYPE svg PUBLIC "-//W3C//DTD SVG 20010904//EN"
 "http://www.w3.org/TR/2001/REC-SVG-20010904/DTD/svg10.dtd">
<svg version="1.0" xmlns="http://www.w3.org/2000/svg"
 width="400.000000pt" height="400.000000pt" viewBox="0 0 400.000000 400.000000"
 preserveAspectRatio="xMidYMid meet">
<metadata>
Created by potrace 1.11, written by Peter Selinger 2001-2013
</metadata>
<g transform="translate(0.000000,400.000000) scale(0.100000,-0.100000)"
fill="#000000" stroke="none">
<path d="M1975 3934 c-11 -2 -74 -8 -140 -14 -114 -9 -170 -18 -260 -39 -22
-6 -53 -13 -70 -16 -16 -4 -39 -10 -50 -14 -11 -5 -38 -14 -60 -20 -22 -7 -50
-17 -62 -22 -13 -5 -33 -13 -45 -18 -142 -55 -402 -210 -518 -307 -97 -82
-259 -252 -310 -324 -13 -19 -27 -37 -30 -40 -14 -11 -70 -99 -70 -109 0 -6
-3 -11 -7 -11 -5 0 -13 -10 -19 -23 -6 -12 -29 -56 -51 -97 -21 -41 -54 -111
-72 -155 -18 -44 -37 -88 -42 -97 -5 -10 -9 -25 -9 -33 0 -8 -4 -23 -9 -33
-13 -24 -43 -141 -60 -232 -24 -131 -31 -208 -31 -359 0 -270 44 -492 150
-756 82 -205 250 -456 420 -625 103 -104 312 -270 339 -270 6 0 11 -4 11 -9 0
-5 8 -11 18 -14 9 -4 40 -20 67 -36 48 -30 69 -40 165 -83 68 -31 78 -35 175
-66 113 -37 142 -44 340 -83 80 -16 451 -16 540 0 187 33 251 48 370 91 50 17
99 34 110 37 67 21 405 216 435 252 3 3 26 22 52 41 56 41 261 248 303 305 17
22 32 42 36 45 9 8 85 123 113 171 27 46 112 218 127 257 5 12 13 32 18 45 10
23 45 130 60 182 64 223 85 508 56 755 -14 114 -62 320 -95 405 -4 11 -13 36
-20 55 -22 63 -85 199 -126 270 -42 72 -159 241 -206 295 -84 99 -236 243
-312 294 -12 8 -23 18 -26 21 -7 9 -120 85 -166 111 -89 51 -184 97 -264 128
-47 18 -94 36 -105 41 -11 4 -40 13 -65 20 -25 7 -56 16 -70 20 -65 20 -237
48 -340 55 -47 3 -105 8 -130 10 -25 2 -54 1 -65 -1z m660 -1074 c17 0 35 -4
41 -9 5 -5 45 -12 89 -15 104 -6 168 -16 180 -27 5 -5 37 -9 72 -9 35 0 63 -4
63 -10 0 -5 12 -10 26 -10 16 0 37 -12 54 -30 15 -16 38 -30 49 -30 23 0 71
-41 71 -60 0 -19 27 -40 50 -40 30 0 61 -18 89 -51 14 -17 34 -29 48 -29 44 0
73 -46 73 -114 0 -25 3 -46 8 -46 14 0 32 -55 32 -101 0 -26 5 -51 10 -54 6
-3 10 -33 10 -66 0 -33 -4 -59 -10 -59 -5 0 -10 -13 -10 -30 0 -16 -4 -30 -10
-30 -5 0 -10 -9 -10 -20 0 -11 -4 -20 -10 -20 -5 0 -10 -13 -10 -29 0 -17 -4
-33 -10 -36 -5 -3 -10 -17 -10 -31 0 -13 -4 -24 -10 -24 -5 0 -10 -9 -10 -19
0 -11 -4 -23 -10 -26 -5 -3 -10 -31 -10 -61 0 -30 5 -54 10 -54 6 0 10 -9 10
-19 0 -11 5 -23 10 -26 6 -3 10 -17 10 -31 0 -13 5 -24 10 -24 6 0 10 -13 10
-28 0 -16 9 -37 20 -47 11 -10 20 -28 20 -41 0 -13 5 -26 10 -29 6 -3 10 -15
10 -26 0 -21 19 -60 34 -71 6 -4 5 -12 -1 -20 -11 -13 -19 -61 -29 -173 -3
-33 -10 -65 -16 -72 -7 -9 -68 -12 -221 -12 -117 -1 -227 -5 -245 -10 -28 -9
-37 -7 -55 9 -11 11 -34 20 -49 20 -37 0 -109 67 -87 81 8 5 17 9 20 9 14 0
49 39 49 53 0 10 11 17 28 19 26 3 27 6 30 65 4 64 -4 82 -40 96 -10 3 -18 12
-18 19 0 7 -10 18 -22 23 -13 6 -27 20 -33 33 -5 12 -16 22 -23 22 -8 0 -16 9
-19 20 -3 11 -9 20 -14 20 -5 0 -9 9 -9 20 0 15 -7 20 -25 20 -17 0 -28 7 -34
23 -21 51 -41 57 -191 57 -131 0 -190 10 -190 32 0 4 -16 8 -36 8 -27 0 -37 5
-41 20 -4 14 -14 20 -34 20 -24 0 -29 -4 -29 -24 0 -14 5 -28 10 -31 6 -3 10
-24 10 -46 0 -21 5 -39 10 -39 6 0 10 -22 10 -50 0 -27 5 -50 10 -50 6 0 10
-29 10 -66 0 -72 13 -93 58 -94 12 0 22 -4 22 -10 0 -5 8 -10 18 -10 24 0 42
-45 42 -107 0 -29 5 -53 10 -53 6 0 10 -9 10 -20 0 -11 -4 -20 -9 -20 -5 0
-11 -9 -14 -20 -3 -14 -14 -20 -31 -20 -22 0 -26 -4 -26 -30 0 -24 -4 -30 -22
-30 -29 -1 -58 -22 -58 -44 0 -18 -44 -23 -55 -6 -3 5 -16 10 -28 10 -26 1
-57 22 -57 40 0 6 14 25 30 40 17 15 30 33 30 39 0 15 -46 61 -60 61 -14 0
-34 20 -43 42 -3 10 -11 18 -17 18 -18 0 -40 27 -40 48 0 22 -46 72 -66 72 -9
0 -14 11 -14 30 0 23 -6 33 -25 40 -29 11 -75 54 -75 70 0 30 -79 120 -105
120 -9 0 -15 -9 -15 -24 0 -14 -4 -28 -10 -31 -5 -3 -10 -15 -10 -26 0 -10 -4
-19 -10 -19 -5 0 -10 -15 -10 -32 0 -37 -37 -88 -64 -88 -9 0 -16 -8 -16 -20
0 -13 -7 -20 -20 -20 -11 0 -20 -4 -20 -10 0 -5 -9 -10 -20 -10 -17 0 -20 -7
-20 -40 0 -36 -2 -40 -26 -40 -42 0 -54 -21 -54 -94 l0 -66 -236 0 c-207 0
-237 2 -252 17 -12 12 -13 18 -4 21 6 2 12 12 12 22 0 12 10 19 33 23 66 11
93 19 137 40 54 26 70 40 70 61 0 9 7 16 16 16 9 0 18 9 21 20 3 11 9 20 14
20 5 0 9 13 9 29 0 17 5 33 10 36 6 3 10 31 10 61 0 56 19 134 32 134 5 0 8
13 8 29 0 17 5 33 10 36 6 3 10 26 10 51 0 24 -4 44 -10 44 -5 0 -10 9 -10 20
0 11 -4 20 -10 20 -5 0 -10 11 -10 24 0 14 -4 28 -10 31 -5 3 -10 24 -10 46 0
39 0 39 -40 39 -22 0 -40 -4 -40 -10 0 -5 -18 -10 -40 -10 -22 0 -40 -4 -40
-10 0 -5 -14 -10 -30 -10 -29 0 -38 -3 -87 -28 -13 -7 -45 -12 -73 -12 -27 0
-50 -4 -50 -10 0 -6 -43 -10 -110 -10 -67 0 -110 -4 -110 -10 0 -5 -16 -10
-35 -10 -26 0 -42 -8 -63 -30 -29 -30 -30 -30 -136 -30 -106 0 -106 0 -106 24
0 14 5 28 10 31 16 10 1 25 -26 25 -13 0 -24 5 -24 10 0 6 5 10 10 10 6 0 10
18 10 40 0 33 3 40 20 40 13 0 20 7 20 20 0 11 5 20 10 20 6 0 10 7 10 16 0 9
8 24 17 33 26 23 43 57 43 83 0 13 9 29 20 36 11 7 20 18 20 26 0 26 87 106
115 106 20 0 27 6 31 30 6 28 10 30 50 30 24 0 44 5 44 10 0 6 9 10 20 10 11
0 20 3 20 8 0 11 51 32 77 32 13 0 23 5 23 10 0 6 9 10 20 10 11 0 20 5 20 10
0 6 9 10 20 10 11 0 20 5 20 10 0 6 9 10 20 10 11 0 20 5 20 10 0 6 10 10 23
10 13 0 33 9 45 20 12 11 35 20 53 20 22 0 39 9 59 30 15 17 35 30 44 30 9 0
16 5 16 10 0 6 16 10 36 10 38 0 64 18 64 44 0 9 8 16 18 16 10 0 24 9 32 20
10 13 26 20 49 20 22 0 40 7 53 22 17 20 27 22 85 20 36 -2 76 -8 90 -13 13
-5 40 -9 59 -9 19 0 34 -4 34 -10 0 -6 47 -10 120 -10 73 0 120 4 120 10 0 6
14 10 30 10 17 0 30 5 30 10 0 6 11 10 24 10 14 0 28 5 31 10 3 6 28 10 56 10
27 0 49 5 49 10 0 6 20 10 44 10 25 0 48 5 51 10 3 6 19 10 36 10 16 0 29 5
29 10 0 6 15 10 33 10 18 0 51 9 73 19 24 12 43 16 49 10 5 -5 23 -9 40 -9z"/>
<path d="M842 2303 c3 -40 8 -58 17 -58 18 0 24 63 9 93 -19 38 -29 25 -26
-35z"/>
</g>
</svg>
